<?xml version="1.0" encoding="UTF-8" standalone="no"?>
<!DOCTYPE svg PUBLIC "-//W3C//DTD SVG 20010904//EN"
              "http://www.w3.org/TR/2001/REC-SVG-20010904/DTD/svg10.dtd">

<svg xmlns="http://www.w3.org/2000/svg"
     width="6.31in" height="5in"
     viewBox="0 0 1893 1500">
  <path id="Selection"
        fill="none" stroke="black" stroke-width="1"
        d="M 0.00,0.00
           C 0.00,0.00 0.00,1500.00 0.00,1500.00
             5.35,1499.27 9.07,1496.72 14.00,1494.62
             14.00,1494.62 37.00,1486.43 37.00,1486.43
             37.00,1486.43 60.00,1481.12 60.00,1481.12
             60.00,1481.12 79.00,1476.42 79.00,1476.42
             86.83,1474.61 95.42,1473.62 102.00,1468.75
             111.95,1461.36 122.58,1448.41 131.20,1439.30
             131.20,1439.30 156.68,1413.00 156.68,1413.00
             156.68,1413.00 165.82,1400.00 165.82,1400.00
             170.97,1393.46 185.37,1378.98 192.00,1373.62
             210.58,1358.58 230.47,1346.14 254.00,1340.88
             260.20,1339.50 267.69,1338.03 274.00,1338.00
             282.76,1337.96 281.08,1337.64 289.00,1336.32
             299.62,1334.55 300.74,1335.24 310.00,1328.11
             317.41,1322.41 323.38,1315.53 330.01,1309.04
             330.01,1309.04 340.96,1299.00 340.96,1299.00
             340.96,1299.00 349.00,1290.17 349.00,1290.17
             349.00,1290.17 358.97,1280.96 358.97,1280.96
             358.97,1280.96 390.32,1246.85 390.32,1246.85
             390.32,1246.85 400.18,1236.59 400.18,1236.59
             403.85,1233.11 405.65,1232.20 409.12,1227.96
             409.12,1227.96 431.45,1200.58 431.45,1200.58
             431.45,1200.58 436.22,1193.00 436.22,1193.00
             436.22,1193.00 443.41,1184.00 443.41,1184.00
             448.58,1177.17 455.70,1166.21 462.00,1161.00
             462.00,1161.00 463.00,1153.00 463.00,1153.00
             470.31,1149.84 468.52,1148.07 473.22,1143.46
             477.37,1139.40 480.83,1137.83 485.79,1132.00
             485.79,1132.00 500.37,1113.00 500.37,1113.00
             500.37,1113.00 505.12,1104.58 505.12,1104.58
             505.12,1104.58 526.21,1073.00 526.21,1073.00
             526.21,1073.00 535.25,1054.00 535.25,1054.00
             535.25,1054.00 543.90,1037.00 543.90,1037.00
             543.90,1037.00 551.23,1015.00 551.23,1015.00
             551.23,1015.00 560.09,990.00 560.09,990.00
             560.09,990.00 569.51,944.00 569.51,944.00
             569.51,944.00 574.43,923.00 574.43,923.00
             574.43,923.00 579.44,908.00 579.44,908.00
             579.44,908.00 585.49,884.00 585.49,884.00
             589.81,868.09 599.85,856.99 610.28,845.00
             614.48,840.17 623.65,832.23 624.00,826.00
             628.98,823.41 639.23,808.50 640.00,803.00
             645.13,800.30 646.51,797.43 648.00,792.00
             651.29,791.31 651.31,791.29 652.00,788.00
             652.00,788.00 661.00,779.00 661.00,779.00
             661.00,779.00 675.00,761.00 675.00,761.00
             679.33,760.58 682.66,758.72 685.00,755.00
             694.32,755.27 692.32,752.21 706.00,753.85
             710.10,754.34 711.98,754.35 716.00,755.93
             716.00,755.93 738.00,766.74 738.00,766.74
             738.00,766.74 763.00,778.05 763.00,778.05
             763.00,778.05 770.00,780.09 770.00,780.09
             774.21,781.49 783.03,785.79 787.00,785.60
             790.90,785.41 795.66,781.35 799.00,779.23
             807.99,773.50 812.64,769.62 823.00,766.00
             823.00,766.00 818.00,793.00 818.00,793.00
             818.00,793.00 821.00,792.00 821.00,792.00
             821.00,792.00 829.00,796.00 829.00,796.00
             829.00,796.00 845.42,725.00 845.42,725.00
             845.42,725.00 868.79,624.00 868.79,624.00
             868.79,624.00 879.50,578.00 879.50,578.00
             880.49,573.64 882.16,562.39 885.43,559.60
             888.79,556.72 895.85,558.74 900.00,558.97
             900.00,558.97 921.00,560.91 921.00,560.91
             921.00,560.91 944.00,562.58 944.00,562.58
             944.00,562.58 990.00,566.17 990.00,566.17
             990.00,566.17 1070.00,572.91 1070.00,572.91
             1070.00,572.91 1111.00,576.58 1111.00,576.58
             1115.49,577.17 1123.00,576.87 1126.82,579.30
             1129.84,581.23 1129.11,583.90 1129.03,587.00
             1128.90,592.38 1129.41,598.50 1124.66,602.28
             1120.79,605.36 1113.72,605.00 1109.00,605.00
             1109.00,605.00 1109.00,608.00 1109.00,608.00
             1109.00,608.00 1097.00,610.00 1097.00,610.00
             1102.84,624.52 1105.21,623.98 1115.87,634.20
             1123.19,641.22 1123.46,645.22 1135.00,645.56
             1139.32,645.69 1149.13,643.18 1150.87,638.78
             1153.05,633.25 1149.72,629.70 1147.61,625.00
             1143.05,614.82 1142.00,613.24 1142.00,602.00
             1147.70,601.32 1148.47,600.02 1151.00,595.00
             1158.95,593.39 1155.76,585.54 1161.22,582.16
             1165.93,579.53 1183.57,582.00 1190.00,582.16
             1189.96,595.38 1184.15,624.71 1181.61,639.00
             1181.61,639.00 1178.25,665.00 1178.25,665.00
             1178.25,665.00 1175.00,684.03 1175.00,684.03
             1165.05,681.55 1169.52,683.16 1161.00,684.03
             1159.41,683.87 1156.92,683.51 1155.57,684.03
             1154.35,685.09 1154.41,685.90 1154.00,687.00
             1154.00,687.00 1149.00,688.00 1149.00,688.00
             1149.00,688.00 1152.00,688.00 1152.00,688.00
             1150.69,698.19 1152.20,701.40 1162.00,705.45
             1165.55,706.91 1165.95,707.82 1170.00,708.00
             1171.55,714.63 1169.66,722.32 1168.59,729.00
             1168.59,729.00 1163.75,760.00 1163.75,760.00
             1163.75,760.00 1158.43,791.00 1158.43,791.00
             1158.43,791.00 1155.71,814.00 1155.71,814.00
             1155.71,814.00 1150.73,845.00 1150.73,845.00
             1150.73,845.00 1144.00,885.00 1144.00,885.00
             1144.00,885.00 1141.00,885.00 1141.00,885.00
             1141.00,885.00 1140.00,870.00 1140.00,870.00
             1140.00,870.00 1136.00,870.00 1136.00,870.00
             1135.84,863.06 1131.27,846.23 1127.70,840.17
             1124.77,835.19 1119.65,831.60 1118.00,826.00
             1114.66,830.92 1114.69,837.30 1113.55,843.00
             1113.55,843.00 1108.72,874.00 1108.72,874.00
             1108.72,874.00 1107.32,887.83 1107.32,887.83
             1107.32,887.83 1108.91,894.04 1108.91,894.04
             1110.37,902.76 1110.12,905.94 1120.00,906.00
             1120.00,906.00 1126.00,906.00 1126.00,906.00
             1126.00,906.00 1126.00,902.00 1126.00,902.00
             1126.00,902.00 1132.00,902.00 1132.00,902.00
             1132.00,902.00 1132.00,898.00 1132.00,898.00
             1132.00,898.00 1135.00,896.00 1135.00,896.00
             1135.00,896.00 1139.73,905.09 1139.73,905.09
             1140.99,910.89 1137.21,929.94 1136.28,937.00
             1136.28,937.00 1131.57,972.00 1131.57,972.00
             1131.57,972.00 1128.27,991.00 1128.27,991.00
             1126.48,1003.13 1125.80,1016.03 1120.00,1027.00
             1114.17,1022.88 1114.42,1024.96 1110.00,1022.49
             1098.62,1016.14 1092.61,1008.16 1092.00,995.00
             1083.63,992.86 1085.25,995.09 1078.00,996.63
             1078.00,996.63 1064.00,998.33 1064.00,998.33
             1064.00,998.33 1055.00,1001.03 1055.00,1001.03
             1040.76,1003.50 1038.64,1000.54 1031.00,1001.03
             1031.00,1001.03 1023.00,1003.00 1023.00,1003.00
             1023.00,1003.00 1023.00,1008.00 1023.00,1008.00
             1028.39,1008.00 1032.58,1007.46 1037.00,1011.00
             1043.61,1011.34 1043.12,1013.47 1047.45,1017.21
             1053.67,1022.58 1052.60,1021.22 1057.75,1028.04
             1064.02,1036.36 1066.17,1036.22 1068.28,1039.13
             1068.28,1039.13 1072.74,1048.58 1072.74,1048.58
             1079.50,1058.59 1088.56,1065.05 1099.96,1068.66
             1105.87,1070.54 1107.50,1071.80 1114.00,1070.00
             1114.34,1095.49 1108.66,1120.82 1105.13,1146.00
             1103.87,1154.99 1103.71,1168.78 1095.96,1174.56
             1091.06,1178.21 1077.95,1174.65 1072.00,1173.58
             1072.00,1173.58 1010.00,1163.43 1010.00,1163.43
             1010.00,1163.43 935.00,1151.29 935.00,1151.29
             935.00,1151.29 837.00,1136.58 837.00,1136.58
             837.00,1136.58 825.00,1134.29 825.00,1134.29
             825.00,1134.29 794.00,1129.54 794.00,1129.54
             783.83,1127.70 770.03,1124.03 760.00,1124.00
             760.00,1124.00 760.00,1103.00 760.00,1103.00
             760.00,1103.00 763.79,1079.00 763.79,1079.00
             763.79,1079.00 772.89,1039.00 772.89,1039.00
             772.89,1039.00 778.00,1017.00 778.00,1017.00
             778.00,1017.00 777.00,1020.00 777.00,1020.00
             777.00,1020.00 775.00,1018.00 775.00,1018.00
             771.95,1020.87 768.66,1028.10 768.05,1032.17
             768.05,1032.17 768.05,1043.00 768.05,1043.00
             768.05,1043.00 770.00,1041.00 770.00,1041.00
             770.00,1041.00 767.00,1056.00 767.00,1056.00
             763.46,1056.62 763.20,1056.58 762.00,1060.00
             758.90,1049.88 760.10,1043.09 760.82,1033.00
             761.03,1029.95 760.40,1027.01 760.00,1024.00
             760.00,1024.00 764.00,1026.00 764.00,1026.00
             764.00,1026.00 767.00,1006.00 767.00,1006.00
             767.00,1006.00 770.00,1008.00 770.00,1008.00
             770.00,1008.00 770.00,1004.00 770.00,1004.00
             770.00,1004.00 772.00,1004.00 772.00,1004.00
             772.00,1004.00 772.00,1016.00 772.00,1016.00
             772.00,1016.00 778.00,1016.00 778.00,1016.00
             778.00,1016.00 782.88,995.00 782.88,995.00
             782.88,995.00 793.50,949.00 793.50,949.00
             795.14,941.74 800.32,926.58 799.00,920.00
             801.75,917.64 801.68,914.42 802.42,911.00
             802.42,911.00 807.37,891.00 807.37,891.00
             807.37,891.00 814.63,860.00 814.63,860.00
             814.63,860.00 817.50,848.04 817.50,848.04
             819.14,844.24 823.96,840.67 826.79,836.91
             834.72,826.38 837.76,815.81 834.00,803.00
             834.00,803.00 831.10,818.00 831.10,818.00
             826.78,831.55 811.38,852.88 796.00,854.00
             796.00,854.00 801.00,845.00 801.00,845.00
             796.79,847.06 789.99,851.24 786.17,854.00
             778.84,859.28 772.22,866.48 765.00,857.00
             765.00,857.00 753.00,861.00 753.00,861.00
             750.83,854.20 748.01,857.48 745.16,852.86
             745.16,852.86 741.00,838.00 741.00,838.00
             739.18,843.53 739.55,854.16 732.81,856.49
             730.94,857.14 727.09,857.00 725.00,857.00
             725.00,857.00 725.00,852.00 725.00,852.00
             722.74,856.11 723.80,858.45 724.00,863.00
             724.00,863.00 714.00,857.00 714.00,857.00
             716.13,864.46 721.12,870.00 721.82,877.00
             722.35,882.21 719.11,890.29 720.83,894.00
             722.65,897.95 730.73,905.48 733.96,910.00
             737.21,914.55 744.41,926.97 746.06,932.17
             746.06,932.17 746.06,940.91 746.06,940.91
             747.56,946.70 751.68,947.53 749.00,957.00
             749.00,957.00 745.00,956.00 745.00,956.00
             745.00,956.00 744.00,964.00 744.00,964.00
             744.00,964.00 740.00,964.00 740.00,964.00
             740.00,964.00 741.00,957.00 741.00,957.00
             741.00,957.00 739.00,960.00 739.00,960.00
             739.00,960.00 735.00,960.00 735.00,960.00
             735.00,960.00 735.00,966.00 735.00,966.00
             735.00,966.00 737.00,964.00 737.00,964.00
             737.00,964.00 744.65,979.00 744.65,979.00
             744.65,979.00 747.99,988.00 747.99,988.00
             744.08,995.44 747.08,996.30 747.99,1003.00
             747.99,1003.00 747.99,1017.83 747.99,1017.83
             748.90,1020.95 750.76,1022.24 751.61,1026.00
             752.83,1031.42 749.80,1037.76 756.00,1040.00
             756.00,1040.00 757.00,1064.00 757.00,1064.00
             757.00,1064.00 750.98,1058.62 750.98,1058.62
             750.98,1058.62 749.37,1053.00 749.37,1053.00
             749.37,1053.00 746.93,1046.00 746.93,1046.00
             746.93,1046.00 745.82,1031.00 745.82,1031.00
             745.82,1031.00 744.00,1022.00 744.00,1022.00
             744.00,1022.00 742.00,1022.00 742.00,1022.00
             742.00,1022.00 742.00,1028.00 742.00,1028.00
             742.00,1028.00 739.01,1028.00 739.01,1028.00
             739.01,1028.00 739.01,1045.00 739.01,1045.00
             739.01,1045.00 740.00,1055.04 740.00,1055.04
             740.00,1055.04 740.00,1064.00 740.00,1064.00
             740.00,1064.00 738.83,1091.00 738.83,1091.00
             738.83,1091.00 737.34,1106.00 737.34,1106.00
             737.34,1106.00 739.00,1124.00 739.00,1124.00
             739.00,1124.00 740.10,1154.00 740.10,1154.00
             740.10,1154.00 745.39,1169.00 745.39,1169.00
             745.39,1169.00 746.17,1180.00 746.17,1180.00
             746.17,1180.00 749.00,1198.00 749.00,1198.00
             749.00,1198.00 756.00,1204.00 756.00,1204.00
             756.00,1204.00 756.00,1200.00 756.00,1200.00
             763.80,1207.86 760.97,1224.93 759.88,1235.00
             759.11,1242.04 760.91,1246.63 761.79,1253.00
             762.53,1258.28 761.32,1259.10 763.00,1266.00
             767.42,1260.19 765.21,1258.21 766.37,1252.00
             766.37,1252.00 767.94,1246.00 767.94,1246.00
             767.94,1246.00 767.94,1234.00 767.94,1234.00
             767.94,1234.00 768.97,1225.00 768.97,1225.00
             768.97,1225.00 768.21,1215.00 768.21,1215.00
             768.21,1215.00 770.00,1204.00 770.00,1204.00
             777.63,1213.64 777.65,1221.02 780.37,1232.00
             782.04,1238.70 783.02,1240.71 784.00,1248.00
             786.08,1242.76 785.69,1230.84 786.09,1225.00
             786.09,1225.00 786.96,1217.00 786.96,1217.00
             787.17,1211.53 783.86,1199.45 785.74,1195.15
             787.82,1190.41 799.11,1192.69 803.17,1193.89
             809.75,1195.85 810.13,1193.53 815.00,1195.15
             824.96,1198.45 827.93,1208.12 831.00,1217.00
             833.90,1212.00 829.80,1203.64 829.00,1198.00
             829.00,1198.00 838.00,1198.65 838.00,1198.65
             844.16,1199.18 844.69,1201.91 852.00,1200.00
             852.00,1200.00 860.19,1208.30 860.19,1208.30
             860.19,1208.30 867.00,1218.00 867.00,1218.00
             865.82,1226.61 874.38,1233.78 864.00,1244.00
             864.00,1236.30 864.50,1233.21 861.00,1226.00
             861.00,1226.00 855.98,1251.00 855.98,1251.00
             855.98,1251.00 848.80,1261.09 848.80,1261.09
             848.80,1261.09 843.00,1273.00 843.00,1273.00
             841.76,1271.12 841.02,1270.27 840.42,1268.00
             840.42,1268.00 837.18,1245.00 837.18,1245.00
             836.71,1241.03 838.22,1235.88 835.00,1233.00
             836.33,1243.11 836.60,1267.60 833.67,1277.00
             832.89,1279.51 831.10,1282.76 829.68,1284.99
             824.39,1293.25 820.49,1291.00 817.27,1296.11
             813.38,1302.27 809.63,1319.81 800.00,1318.00
             800.00,1318.00 781.91,1335.56 781.91,1335.56
             781.91,1335.56 770.00,1346.00 770.00,1346.00
             770.00,1346.00 764.00,1344.00 764.00,1344.00
             764.00,1344.00 764.00,1349.00 764.00,1349.00
             764.00,1349.00 759.00,1348.00 759.00,1348.00
             759.00,1348.00 750.00,1360.00 750.00,1360.00
             750.00,1360.00 749.00,1354.00 749.00,1354.00
             743.77,1357.51 741.44,1364.16 737.39,1368.87
             734.43,1372.31 729.83,1373.37 726.00,1375.81
             720.51,1378.87 710.45,1388.20 708.08,1375.81
             708.08,1375.81 708.08,1370.00 708.08,1370.00
             708.08,1370.00 708.08,1362.00 708.08,1362.00
             708.08,1362.00 699.00,1369.00 699.00,1369.00
             699.00,1369.00 691.00,1376.00 691.00,1376.00
             687.14,1372.79 681.86,1371.14 677.00,1370.00
             675.61,1377.66 674.37,1378.36 668.00,1382.00
             668.00,1382.00 666.26,1372.00 666.26,1372.00
             666.26,1372.00 668.00,1360.00 668.00,1360.00
             668.00,1360.00 674.00,1360.00 674.00,1360.00
             674.00,1360.00 676.16,1350.99 676.16,1350.99
             676.16,1350.99 676.16,1320.00 676.16,1320.00
             676.16,1320.00 675.00,1304.00 675.00,1304.00
             674.98,1294.10 675.47,1282.29 672.00,1273.00
             666.00,1276.60 669.07,1280.24 669.03,1286.00
             669.03,1286.00 668.00,1296.00 668.00,1296.00
             668.00,1296.00 663.00,1299.00 663.00,1299.00
             663.00,1299.00 660.00,1293.00 660.00,1293.00
             660.00,1293.00 656.00,1294.00 656.00,1294.00
             656.00,1294.00 652.00,1292.00 652.00,1292.00
             652.00,1292.00 650.00,1274.00 650.00,1274.00
             656.89,1271.48 650.05,1268.22 657.00,1264.00
             657.00,1264.00 656.00,1256.00 656.00,1256.00
             659.66,1252.40 656.31,1241.99 649.21,1245.54
             646.30,1247.00 643.33,1252.88 640.73,1255.74
             640.73,1255.74 637.18,1259.45 637.18,1259.45
             637.18,1259.45 632.67,1265.96 632.67,1265.96
             632.67,1265.96 625.72,1273.09 625.72,1273.09
             625.72,1273.09 617.04,1290.00 617.04,1290.00
             612.73,1297.19 616.14,1295.08 609.18,1301.69
             607.69,1303.11 607.05,1303.28 608.00,1305.00
             599.94,1310.07 602.27,1311.77 597.63,1318.28
             583.33,1338.36 591.28,1328.55 582.23,1346.09
             582.23,1346.09 576.38,1356.00 576.38,1356.00
             573.39,1363.31 574.40,1366.14 573.42,1368.96
             573.42,1368.96 570.37,1374.28 570.37,1374.28
             566.23,1382.18 563.08,1390.00 563.00,1399.00
             557.24,1400.83 558.37,1403.05 556.21,1407.96
             556.21,1407.96 553.50,1413.28 553.50,1413.28
             552.72,1415.53 553.24,1416.61 551.79,1419.58
             548.90,1425.48 544.95,1428.64 544.00,1436.00
             544.00,1436.00 541.00,1436.00 541.00,1436.00
             541.00,1436.00 541.00,1444.00 541.00,1444.00
             541.00,1444.00 536.00,1444.00 536.00,1444.00
             536.00,1444.00 536.00,1452.00 536.00,1452.00
             536.00,1452.00 532.00,1452.00 532.00,1452.00
             532.00,1452.00 532.00,1462.00 532.00,1462.00
             532.00,1462.00 528.00,1462.00 528.00,1462.00
             528.00,1462.00 530.98,1483.00 530.98,1483.00
             533.32,1490.13 536.51,1491.14 537.00,1500.00
             537.00,1500.00 1893.00,1500.00 1893.00,1500.00
             1893.00,1500.00 1893.00,1024.00 1893.00,1024.00
             1893.00,1024.00 1888.00,1024.00 1888.00,1024.00
             1888.00,1024.00 1888.00,1016.00 1888.00,1016.00
             1893.32,1014.14 1892.94,1006.94 1893.00,1002.00
             1893.00,1002.00 1893.00,958.00 1893.00,958.00
             1893.00,958.00 1893.00,775.00 1893.00,775.00
             1893.00,775.00 1893.00,0.00 1893.00,0.00
             1893.00,0.00 0.00,0.00 0.00,0.00 Z
           M 1054.00,561.00
           C 1054.00,561.00 1057.00,553.00 1057.00,553.00
             1062.65,556.20 1061.90,560.75 1054.00,561.00 Z
           M 1018.00,557.00
           C 1018.00,557.00 1018.00,558.00 1018.00,558.00
             1018.00,558.00 1017.00,557.00 1017.00,557.00
             1017.00,557.00 1018.00,557.00 1018.00,557.00 Z
           M 1190.00,644.00
           C 1190.00,644.00 1190.00,645.00 1190.00,645.00
             1190.00,645.00 1189.00,644.00 1189.00,644.00
             1189.00,644.00 1190.00,644.00 1190.00,644.00 Z
           M 1191.00,645.00
           C 1191.00,645.00 1191.00,646.00 1191.00,646.00
             1191.00,646.00 1190.00,645.00 1190.00,645.00
             1190.00,645.00 1191.00,645.00 1191.00,645.00 Z
           M 1177.00,710.00
           C 1177.00,710.00 1177.00,711.00 1177.00,711.00
             1177.00,711.00 1176.00,710.00 1176.00,710.00
             1176.00,710.00 1177.00,710.00 1177.00,710.00 Z
           M 1171.00,728.00
           C 1171.00,728.00 1171.00,729.00 1171.00,729.00
             1171.00,729.00 1170.00,728.00 1170.00,728.00
             1170.00,728.00 1171.00,728.00 1171.00,728.00 Z
           M 1177.00,728.00
           C 1177.00,728.00 1177.00,729.00 1177.00,729.00
             1177.00,729.00 1176.00,728.00 1176.00,728.00
             1176.00,728.00 1177.00,728.00 1177.00,728.00 Z
           M 1176.00,729.00
           C 1176.00,729.00 1176.00,730.00 1176.00,730.00
             1176.00,730.00 1175.00,729.00 1175.00,729.00
             1175.00,729.00 1176.00,729.00 1176.00,729.00 Z
           M 1184.00,737.00
           C 1184.00,737.00 1184.00,738.00 1184.00,738.00
             1184.00,738.00 1183.00,737.00 1183.00,737.00
             1183.00,737.00 1184.00,737.00 1184.00,737.00 Z
           M 1183.00,738.00
           C 1183.00,738.00 1183.00,739.00 1183.00,739.00
             1183.00,739.00 1182.00,738.00 1182.00,738.00
             1182.00,738.00 1183.00,738.00 1183.00,738.00 Z
           M 1185.00,738.00
           C 1185.00,738.00 1187.00,740.00 1187.00,740.00
             1187.00,740.00 1183.00,743.00 1183.00,743.00
             1183.00,743.00 1185.00,738.00 1185.00,738.00 Z
           M 1188.00,739.00
           C 1188.00,739.00 1188.00,740.00 1188.00,740.00
             1188.00,740.00 1187.00,739.00 1187.00,739.00
             1187.00,739.00 1188.00,739.00 1188.00,739.00 Z
           M 1190.00,739.00
           C 1190.00,739.00 1190.00,740.00 1190.00,740.00
             1190.00,740.00 1189.00,739.00 1189.00,739.00
             1189.00,739.00 1190.00,739.00 1190.00,739.00 Z
           M 1183.00,741.00
           C 1183.00,741.00 1183.00,742.00 1183.00,742.00
             1183.00,742.00 1182.00,741.00 1182.00,741.00
             1182.00,741.00 1183.00,741.00 1183.00,741.00 Z
           M 674.00,762.00
           C 674.00,762.00 674.00,763.00 674.00,763.00
             674.00,763.00 673.00,762.00 673.00,762.00
             673.00,762.00 674.00,762.00 674.00,762.00 Z
           M 672.00,763.00
           C 672.00,763.00 672.00,764.00 672.00,764.00
             672.00,764.00 671.00,763.00 671.00,763.00
             671.00,763.00 672.00,763.00 672.00,763.00 Z
           M 670.00,765.00
           C 670.00,765.00 670.00,766.00 670.00,766.00
             670.00,766.00 669.00,765.00 669.00,765.00
             669.00,765.00 670.00,765.00 670.00,765.00 Z
           M 668.00,767.00
           C 668.00,767.00 668.00,768.00 668.00,768.00
             668.00,768.00 667.00,767.00 667.00,767.00
             667.00,767.00 668.00,767.00 668.00,767.00 Z
           M 665.00,768.00
           C 665.00,768.00 665.00,769.00 665.00,769.00
             665.00,769.00 664.00,768.00 664.00,768.00
             664.00,768.00 665.00,768.00 665.00,768.00 Z
           M 663.00,773.00
           C 663.00,773.00 663.00,774.00 663.00,774.00
             663.00,774.00 662.00,773.00 662.00,773.00
             662.00,773.00 663.00,773.00 663.00,773.00 Z
           M 824.00,778.00
           C 824.00,778.00 824.00,779.00 824.00,779.00
             824.00,779.00 823.00,778.00 823.00,778.00
             823.00,778.00 824.00,778.00 824.00,778.00 Z
           M 657.00,783.00
           C 657.00,783.00 657.00,784.00 657.00,784.00
             657.00,784.00 656.00,783.00 656.00,783.00
             656.00,783.00 657.00,783.00 657.00,783.00 Z
           M 823.00,784.00
           C 823.00,784.00 822.00,788.00 822.00,788.00
             822.00,788.00 823.00,784.00 823.00,784.00 Z
           M 1170.00,800.00
           C 1170.00,800.00 1170.00,801.00 1170.00,801.00
             1170.00,801.00 1169.00,800.00 1169.00,800.00
             1169.00,800.00 1170.00,800.00 1170.00,800.00 Z
           M 1174.00,800.00
           C 1174.00,800.00 1174.00,801.00 1174.00,801.00
             1174.00,801.00 1173.00,800.00 1173.00,800.00
             1173.00,800.00 1174.00,800.00 1174.00,800.00 Z
           M 1171.00,803.00
           C 1171.00,803.00 1171.00,804.00 1171.00,804.00
             1171.00,804.00 1170.00,803.00 1170.00,803.00
             1170.00,803.00 1171.00,803.00 1171.00,803.00 Z
           M 1174.00,803.00
           C 1174.00,803.00 1174.00,804.00 1174.00,804.00
             1174.00,804.00 1173.00,803.00 1173.00,803.00
             1173.00,803.00 1174.00,803.00 1174.00,803.00 Z
           M 1176.00,804.00
           C 1176.00,804.00 1176.00,808.00 1176.00,808.00
             1176.00,808.00 1174.00,808.00 1174.00,808.00
             1174.00,808.00 1174.00,804.00 1174.00,804.00
             1174.00,804.00 1176.00,804.00 1176.00,804.00 Z
           M 637.00,808.00
           C 637.00,808.00 637.00,809.00 637.00,809.00
             637.00,809.00 636.00,808.00 636.00,808.00
             636.00,808.00 637.00,808.00 637.00,808.00 Z
           M 626.00,824.00
           C 626.00,824.00 626.00,825.00 626.00,825.00
             626.00,825.00 625.00,824.00 625.00,824.00
             625.00,824.00 626.00,824.00 626.00,824.00 Z
           M 815.00,850.00
           C 810.46,858.13 801.63,863.12 802.00,874.00
             802.00,874.00 797.00,884.00 797.00,884.00
             796.45,880.32 800.10,867.18 801.28,863.00
             801.79,861.17 802.02,858.01 802.99,856.63
             804.78,854.09 811.99,850.81 815.00,850.00 Z
           M 799.00,864.00
           C 798.26,869.57 797.87,879.71 793.00,883.00
             790.45,874.91 788.04,879.64 788.00,868.00
             788.00,868.00 797.00,864.00 797.00,864.00
             797.00,864.00 799.00,864.00 799.00,864.00 Z
           M 1158.00,864.00
           C 1158.00,864.00 1158.00,865.00 1158.00,865.00
             1158.00,865.00 1157.00,864.00 1157.00,864.00
             1157.00,864.00 1158.00,864.00 1158.00,864.00 Z
           M 1158.00,867.00
           C 1158.00,867.00 1158.00,868.00 1158.00,868.00
             1158.00,868.00 1157.00,867.00 1157.00,867.00
             1157.00,867.00 1158.00,867.00 1158.00,867.00 Z
           M 810.00,874.00
           C 810.00,874.00 810.00,875.00 810.00,875.00
             810.00,875.00 809.00,874.00 809.00,874.00
             809.00,874.00 810.00,874.00 810.00,874.00 Z
           M 783.00,921.00
           C 783.23,914.38 781.18,903.01 778.50,897.01
             776.68,892.94 771.06,889.35 772.53,884.33
             774.60,877.23 781.17,880.91 785.00,883.36
             786.79,884.50 789.28,885.74 790.69,887.27
             793.29,890.11 792.80,892.54 792.24,896.00
             792.24,896.00 786.69,917.86 786.69,917.86
             785.55,919.87 784.84,919.99 783.00,921.00 Z
           M 809.00,880.00
           C 809.00,880.00 809.00,881.00 809.00,881.00
             809.00,881.00 808.00,880.00 808.00,880.00
             808.00,880.00 809.00,880.00 809.00,880.00 Z
           M 800.00,881.00
           C 799.72,884.21 800.06,884.73 797.00,886.00
             797.00,886.00 800.00,881.00 800.00,881.00 Z
           M 1167.27,883.70
           C 1173.68,883.30 1179.52,889.21 1183.96,893.29
             1188.49,897.45 1192.40,903.18 1194.45,909.00
             1196.15,913.81 1196.07,918.96 1196.26,924.00
             1196.72,936.65 1191.85,950.87 1179.00,955.56
             1164.97,960.68 1159.15,950.64 1159.00,938.00
             1158.83,922.93 1159.26,916.92 1161.42,902.00
             1162.24,896.36 1162.23,887.17 1167.27,883.70 Z
           M 795.00,893.00
           C 795.00,893.00 796.00,900.00 796.00,900.00
             799.56,900.96 798.66,902.89 798.00,906.00
             795.16,902.28 793.32,897.58 795.00,893.00 Z
           M 1141.00,894.00
           C 1141.00,894.00 1141.00,900.00 1141.00,900.00
             1141.00,900.00 1141.00,894.00 1141.00,894.00 Z
           M 802.00,897.00
           C 802.00,897.00 802.00,898.00 802.00,898.00
             802.00,898.00 801.00,897.00 801.00,897.00
             801.00,897.00 802.00,897.00 802.00,897.00 Z
           M 795.00,902.00
           C 795.00,902.00 795.00,903.00 795.00,903.00
             795.00,903.00 794.00,902.00 794.00,902.00
             794.00,902.00 795.00,902.00 795.00,902.00 Z
           M 792.00,904.00
           C 792.00,904.00 792.00,905.00 792.00,905.00
             792.00,905.00 791.00,904.00 791.00,904.00
             791.00,904.00 792.00,904.00 792.00,904.00 Z
           M 796.00,904.00
           C 796.00,904.00 795.00,907.00 795.00,907.00
             795.00,907.00 793.00,904.00 793.00,904.00
             793.00,904.00 796.00,904.00 796.00,904.00 Z
           M 793.00,908.00
           C 793.00,908.00 792.00,912.00 792.00,912.00
             792.00,912.00 791.00,908.00 791.00,908.00
             791.00,908.00 793.00,908.00 793.00,908.00 Z
           M 791.00,912.00
           C 791.00,912.00 791.00,916.00 791.00,916.00
             791.00,916.00 791.00,912.00 791.00,912.00 Z
           M 789.00,918.00
           C 789.00,918.00 789.00,919.00 789.00,919.00
             789.00,919.00 788.00,918.00 788.00,918.00
             788.00,918.00 789.00,918.00 789.00,918.00 Z
           M 789.00,920.00
           C 789.00,920.00 789.00,928.00 789.00,928.00
             789.00,928.00 790.00,924.00 790.00,924.00
             791.37,924.87 793.60,926.09 791.00,927.00
             792.41,932.02 791.80,935.92 791.00,941.00
             791.00,941.00 790.00,938.00 790.00,938.00
             790.00,938.00 784.00,938.00 784.00,938.00
             784.00,938.00 786.00,936.00 786.00,936.00
             784.01,931.91 786.68,923.79 789.00,920.00 Z
           M 1148.00,936.00
           C 1148.00,936.00 1145.00,942.00 1145.00,942.00
             1145.00,942.00 1144.00,935.00 1144.00,935.00
             1144.00,935.00 1148.00,936.00 1148.00,936.00 Z
           M 787.00,961.00
           C 787.00,961.00 786.00,955.00 786.00,955.00
             786.00,955.00 785.38,964.00 785.38,964.00
             785.38,964.00 784.00,970.00 784.00,970.00
             784.00,970.00 780.00,970.00 780.00,970.00
             780.67,975.06 783.06,981.81 777.00,984.00
             777.00,984.00 776.17,970.00 776.17,970.00
             776.17,970.00 779.38,958.91 779.38,958.91
             779.38,958.91 779.38,954.00 779.38,954.00
             779.38,954.00 781.00,948.00 781.00,948.00
             789.78,948.73 787.15,954.12 787.00,961.00 Z
           M 1201.00,1024.00
           C 1201.00,1024.00 1792.00,1024.00 1792.00,1024.00
             1792.00,1024.00 1792.00,1408.00 1792.00,1408.00
             1792.00,1408.00 896.00,1408.00 896.00,1408.00
             896.00,1408.00 896.00,1280.00 896.00,1280.00
             896.00,1280.00 1152.00,1280.00 1152.00,1280.00
             1152.00,1280.00 1152.00,1144.00 1152.00,1144.00
             1147.70,1146.26 1141.11,1149.94 1136.22,1146.98
             1132.91,1144.96 1132.00,1138.60 1131.58,1135.00
             1129.53,1122.83 1129.96,1111.13 1131.58,1099.00
             1132.32,1094.96 1134.26,1082.21 1137.50,1080.03
             1141.55,1077.29 1148.71,1081.67 1152.00,1084.00
             1152.00,1084.00 1152.00,1046.00 1152.00,1046.00
             1151.98,1032.51 1148.60,1035.78 1145.79,1026.00
             1144.82,1022.65 1143.90,1007.88 1144.04,1004.00
             1144.32,996.47 1146.26,983.38 1148.04,976.00
             1148.72,973.14 1150.17,967.62 1152.43,965.74
             1155.08,963.52 1160.65,963.96 1164.00,964.00
             1195.98,964.38 1215.61,995.34 1201.00,1024.00 Z
           M 787.00,972.00
           C 787.00,972.00 787.00,973.00 787.00,973.00
             787.00,973.00 786.00,972.00 786.00,972.00
             786.00,972.00 787.00,972.00 787.00,972.00 Z
           M 761.00,976.00
           C 761.00,976.00 761.92,988.00 761.92,988.00
             761.92,988.00 761.00,1000.00 761.00,1000.00
             759.38,995.91 759.38,980.09 761.00,976.00 Z
           M 1199.00,978.00
           C 1199.00,978.00 1199.00,979.00 1199.00,979.00
             1199.00,979.00 1198.00,978.00 1198.00,978.00
             1198.00,978.00 1199.00,978.00 1199.00,978.00 Z
           M 776.00,988.00
           C 776.00,988.00 776.00,992.00 776.00,992.00
             776.00,992.00 773.00,992.00 773.00,992.00
             773.00,992.00 773.00,988.00 773.00,988.00
             773.00,988.00 776.00,988.00 776.00,988.00 Z
           M 780.00,991.00
           C 780.00,991.00 780.00,992.00 780.00,992.00
             780.00,992.00 779.00,991.00 779.00,991.00
             779.00,991.00 780.00,991.00 780.00,991.00 Z
           M 776.00,995.00
           C 778.34,1001.58 777.06,1003.30 777.00,1010.00
             773.32,1006.44 771.53,998.40 776.00,995.00 Z
           M 779.00,1002.00
           C 779.00,1002.00 779.00,1008.00 779.00,1008.00
             779.00,1008.00 779.00,1002.00 779.00,1002.00 Z
           M 384.00,1024.00
           C 384.00,1024.00 384.00,1152.00 384.00,1152.00
             384.00,1152.00 256.00,1152.00 256.00,1152.00
             256.00,1152.00 256.00,1280.00 256.00,1280.00
             256.00,1280.00 128.00,1280.00 128.00,1280.00
             128.00,1280.00 128.00,1024.00 128.00,1024.00
             128.00,1024.00 384.00,1024.00 384.00,1024.00 Z
           M 773.00,1024.00
           C 773.00,1024.00 773.00,1025.00 773.00,1025.00
             773.00,1025.00 772.00,1024.00 772.00,1024.00
             772.00,1024.00 773.00,1024.00 773.00,1024.00 Z
           M 772.00,1035.00
           C 772.00,1035.00 772.00,1036.00 772.00,1036.00
             772.00,1036.00 771.00,1035.00 771.00,1035.00
             771.00,1035.00 772.00,1035.00 772.00,1035.00 Z
           M 769.00,1051.00
           C 769.00,1051.00 769.00,1052.00 769.00,1052.00
             769.00,1052.00 768.00,1051.00 768.00,1051.00
             768.00,1051.00 769.00,1051.00 769.00,1051.00 Z
           M 766.00,1061.00
           C 766.00,1061.00 766.00,1065.00 766.00,1065.00
             766.00,1065.00 766.00,1061.00 766.00,1061.00 Z
           M 1116.00,1090.00
           C 1116.00,1090.00 1118.00,1094.00 1118.00,1094.00
             1118.00,1094.00 1115.00,1097.00 1115.00,1097.00
             1115.00,1097.00 1116.00,1090.00 1116.00,1090.00 Z
           M 765.00,1127.00
           C 765.00,1127.00 764.00,1132.00 764.00,1132.00
             764.00,1132.00 768.00,1132.00 768.00,1132.00
             768.00,1132.00 768.00,1128.00 768.00,1128.00
             768.00,1128.00 772.00,1128.00 772.00,1128.00
             772.00,1128.00 772.00,1132.00 772.00,1132.00
             772.00,1132.00 780.00,1132.00 780.00,1132.00
             780.00,1132.00 780.00,1136.00 780.00,1136.00
             780.00,1136.00 776.00,1136.00 776.00,1136.00
             776.00,1136.00 776.00,1160.00 776.00,1160.00
             776.00,1160.00 780.00,1160.00 780.00,1160.00
             780.00,1160.00 781.00,1169.00 781.00,1169.00
             781.00,1169.00 776.00,1168.00 776.00,1168.00
             776.00,1168.00 776.00,1172.00 776.00,1172.00
             773.39,1172.00 765.59,1172.50 763.74,1171.01
             762.01,1169.61 761.77,1165.21 761.26,1163.00
             758.80,1152.50 758.98,1150.57 759.00,1140.00
             759.01,1130.44 760.39,1129.85 760.25,1128.13
             760.57,1126.98 760.10,1127.15 760.25,1127.00
             760.25,1127.00 765.00,1127.00 765.00,1127.00 Z
           M 1114.00,1127.00
           C 1116.71,1132.16 1115.72,1134.30 1116.00,1140.00
             1116.00,1140.00 1110.00,1138.00 1110.00,1138.00
             1110.00,1138.00 1114.00,1127.00 1114.00,1127.00 Z
           M 909.00,1152.00
           C 909.00,1152.00 909.00,1153.00 909.00,1153.00
             909.00,1153.00 908.00,1152.00 908.00,1152.00
             908.00,1152.00 909.00,1152.00 909.00,1152.00 Z
           M 950.00,1161.00
           C 950.00,1161.00 954.00,1164.00 954.00,1164.00
             953.59,1165.16 953.60,1166.11 952.41,1166.94
             950.73,1168.10 940.77,1166.14 938.00,1165.83
             938.00,1165.83 900.00,1159.43 900.00,1159.43
             894.46,1158.51 889.01,1159.33 886.00,1154.00
             891.43,1152.90 897.56,1154.36 903.00,1155.25
             903.00,1155.25 928.00,1158.74 928.00,1158.74
             935.01,1159.99 942.93,1162.39 950.00,1161.00 Z
           M 927.00,1156.00
           C 927.00,1156.00 927.00,1157.00 927.00,1157.00
             927.00,1157.00 926.00,1156.00 926.00,1156.00
             926.00,1156.00 927.00,1156.00 927.00,1156.00 Z
           M 905.00,1161.00
           C 905.00,1161.00 905.00,1162.00 905.00,1162.00
             905.00,1162.00 904.00,1161.00 904.00,1161.00
             904.00,1161.00 905.00,1161.00 905.00,1161.00 Z
           M 957.00,1164.00
           C 957.00,1164.00 957.00,1165.00 957.00,1165.00
             957.00,1165.00 956.00,1164.00 956.00,1164.00
             956.00,1164.00 957.00,1164.00 957.00,1164.00 Z
           M 986.00,1164.00
           C 986.00,1164.00 986.00,1165.00 986.00,1165.00
             986.00,1165.00 985.00,1164.00 985.00,1164.00
             985.00,1164.00 986.00,1164.00 986.00,1164.00 Z
           M 791.00,1171.00
           C 791.00,1171.00 791.00,1172.00 791.00,1172.00
             791.00,1172.00 790.00,1171.00 790.00,1171.00
             790.00,1171.00 791.00,1171.00 791.00,1171.00 Z
           M 801.00,1171.00
           C 801.00,1171.00 801.00,1172.00 801.00,1172.00
             801.00,1172.00 800.00,1171.00 800.00,1171.00
             800.00,1171.00 801.00,1171.00 801.00,1171.00 Z
           M 832.00,1178.00
           C 836.18,1181.13 840.07,1180.54 845.00,1180.00
             845.00,1180.00 844.00,1182.00 844.00,1182.00
             844.00,1182.00 850.00,1180.00 850.00,1180.00
             850.00,1180.00 848.00,1182.00 848.00,1182.00
             848.00,1182.00 857.00,1181.00 857.00,1181.00
             857.00,1181.00 854.00,1182.00 854.00,1182.00
             854.00,1182.00 869.00,1186.00 869.00,1186.00
             869.00,1186.00 871.00,1186.00 871.00,1186.00
             871.00,1186.00 874.00,1184.00 874.00,1184.00
             874.00,1184.00 874.00,1185.00 874.00,1185.00
             874.00,1185.00 872.00,1185.00 872.00,1185.00
             872.00,1185.00 879.00,1187.00 879.00,1187.00
             879.00,1187.00 875.00,1186.00 875.00,1186.00
             875.00,1186.00 881.00,1185.00 881.00,1185.00
             881.00,1185.00 884.00,1188.00 884.00,1188.00
             884.81,1185.73 885.67,1186.20 888.00,1186.00
             888.00,1186.00 886.00,1188.00 886.00,1188.00
             886.00,1188.00 891.00,1189.00 891.00,1189.00
             891.00,1189.00 888.00,1188.00 888.00,1188.00
             893.56,1185.96 892.95,1190.20 901.99,1190.30
             904.45,1190.32 906.08,1189.47 907.00,1192.00
             907.00,1192.00 919.00,1191.00 919.00,1191.00
             919.00,1191.00 903.00,1188.21 903.00,1188.21
             903.00,1188.21 893.00,1186.08 893.00,1186.08
             889.41,1185.47 885.03,1185.88 884.00,1182.00
             884.00,1182.00 881.00,1181.00 881.00,1181.00
             887.01,1178.64 904.87,1183.12 912.00,1183.83
             914.94,1184.12 920.84,1182.75 922.00,1186.00
             922.00,1186.00 929.00,1185.00 929.00,1185.00
             929.00,1185.00 928.00,1187.00 928.00,1187.00
             928.00,1187.00 935.00,1186.00 935.00,1186.00
             935.00,1186.00 935.83,1187.49 935.83,1187.49
             935.83,1187.49 948.00,1191.00 948.00,1191.00
             942.68,1196.25 937.53,1193.01 931.00,1192.76
             931.00,1192.76 922.00,1192.76 922.00,1192.76
             922.00,1192.76 922.00,1192.00 922.00,1192.00
             922.00,1192.00 924.00,1192.00 924.00,1192.00
             924.00,1192.00 920.00,1191.00 920.00,1191.00
             920.00,1191.00 921.00,1192.00 921.00,1192.00
             921.00,1192.00 920.00,1194.00 920.00,1194.00
             920.00,1194.00 933.00,1194.00 933.00,1194.00
             933.00,1194.00 939.00,1196.05 939.00,1196.05
             939.00,1196.05 957.00,1197.00 957.00,1197.00
             957.00,1197.00 952.00,1198.00 952.00,1198.00
             952.00,1198.00 978.00,1201.00 978.00,1201.00
             978.00,1201.00 978.00,1202.00 978.00,1202.00
             978.00,1202.00 976.00,1202.00 976.00,1202.00
             976.00,1202.00 984.00,1202.00 984.00,1202.00
             988.33,1205.32 991.89,1204.87 997.00,1204.00
             998.25,1206.80 1010.61,1207.75 1014.00,1208.27
             1014.00,1208.27 1066.00,1217.00 1066.00,1217.00
             1066.00,1217.00 1067.00,1222.00 1067.00,1222.00
             1060.51,1223.44 1051.63,1221.45 1045.00,1220.42
             1045.00,1220.42 1002.00,1213.27 1002.00,1213.27
             1002.00,1213.27 849.00,1188.41 849.00,1188.41
             849.00,1188.41 802.00,1180.73 802.00,1180.73
             794.43,1179.64 787.18,1180.24 783.00,1173.00
             789.31,1171.40 790.18,1173.10 796.00,1173.82
             805.69,1175.01 823.08,1179.18 832.00,1178.00 Z
           M 807.00,1172.00
           C 807.00,1172.00 801.00,1173.00 801.00,1173.00
             801.00,1173.00 807.00,1172.00 807.00,1172.00 Z
           M 1104.00,1173.00
           C 1104.00,1173.00 1104.00,1174.00 1104.00,1174.00
             1104.00,1174.00 1103.00,1173.00 1103.00,1173.00
             1103.00,1173.00 1104.00,1173.00 1104.00,1173.00 Z
           M 774.00,1176.00
           C 773.98,1182.34 774.58,1183.51 769.00,1187.00
             769.00,1187.00 772.00,1190.00 772.00,1190.00
             772.00,1190.00 768.00,1190.00 768.00,1190.00
             768.00,1190.00 765.00,1176.00 765.00,1176.00
             765.00,1176.00 774.00,1176.00 774.00,1176.00 Z
           M 884.00,1176.00
           C 884.00,1176.00 884.00,1177.00 884.00,1177.00
             884.00,1177.00 883.00,1176.00 883.00,1176.00
             883.00,1176.00 884.00,1176.00 884.00,1176.00 Z
           M 888.00,1177.00
           C 888.00,1177.00 888.00,1178.00 888.00,1178.00
             888.00,1178.00 887.00,1177.00 887.00,1177.00
             887.00,1177.00 888.00,1177.00 888.00,1177.00 Z
           M 885.00,1178.00
           C 885.00,1178.00 885.00,1179.00 885.00,1179.00
             885.00,1179.00 884.00,1178.00 884.00,1178.00
             884.00,1178.00 885.00,1178.00 885.00,1178.00 Z
           M 793.00,1182.00
           C 793.00,1182.00 793.00,1183.00 793.00,1183.00
             793.00,1183.00 792.00,1182.00 792.00,1182.00
             792.00,1182.00 793.00,1182.00 793.00,1182.00 Z
           M 799.00,1183.00
           C 799.00,1183.00 799.00,1184.00 799.00,1184.00
             799.00,1184.00 798.00,1183.00 798.00,1183.00
             798.00,1183.00 799.00,1183.00 799.00,1183.00 Z
           M 793.00,1187.00
           C 789.52,1191.58 785.22,1188.74 780.00,1188.00
             780.00,1188.00 782.00,1184.00 782.00,1184.00
             782.00,1184.00 793.00,1187.00 793.00,1187.00 Z
           M 947.00,1185.00
           C 947.00,1185.00 947.00,1186.00 947.00,1186.00
             947.00,1186.00 946.00,1185.00 946.00,1185.00
             946.00,1185.00 947.00,1185.00 947.00,1185.00 Z
           M 773.00,1187.00
           C 773.00,1187.00 773.00,1188.00 773.00,1188.00
             773.00,1188.00 772.00,1187.00 772.00,1187.00
             772.00,1187.00 773.00,1187.00 773.00,1187.00 Z
           M 797.00,1188.00
           C 797.00,1188.00 797.00,1189.00 797.00,1189.00
             797.00,1189.00 796.00,1188.00 796.00,1188.00
             796.00,1188.00 797.00,1188.00 797.00,1188.00 Z
           M 842.00,1190.00
           C 842.00,1190.00 842.00,1191.00 842.00,1191.00
             842.00,1191.00 841.00,1190.00 841.00,1190.00
             841.00,1190.00 842.00,1190.00 842.00,1190.00 Z
           M 851.00,1191.00
           C 851.00,1191.00 843.00,1192.00 843.00,1192.00
             843.00,1192.00 851.00,1191.00 851.00,1191.00 Z
           M 824.00,1193.00
           C 824.00,1193.00 824.00,1194.00 824.00,1194.00
             824.00,1194.00 823.00,1193.00 823.00,1193.00
             823.00,1193.00 824.00,1193.00 824.00,1193.00 Z
           M 867.00,1194.00
           C 867.00,1194.00 856.00,1194.00 856.00,1194.00
             860.05,1192.40 862.86,1193.26 867.00,1194.00 Z
           M 914.00,1192.00
           C 914.00,1192.00 914.00,1193.00 914.00,1193.00
             914.00,1193.00 915.00,1192.00 915.00,1192.00
             915.00,1192.00 914.00,1192.00 914.00,1192.00 Z
           M 958.00,1193.00
           C 958.00,1193.00 958.00,1194.00 958.00,1194.00
             958.00,1194.00 957.00,1193.00 957.00,1193.00
             957.00,1193.00 958.00,1193.00 958.00,1193.00 Z
           M 878.00,1196.00
           C 878.00,1196.00 871.00,1196.00 871.00,1196.00
             871.00,1196.00 878.00,1196.00 878.00,1196.00 Z
           M 950.00,1195.00
           C 950.00,1195.00 945.00,1196.00 945.00,1196.00
             945.00,1196.00 950.00,1195.00 950.00,1195.00 Z
           M 827.00,1196.00
           C 827.00,1196.00 827.00,1197.00 827.00,1197.00
             827.00,1197.00 826.00,1196.00 826.00,1196.00
             826.00,1196.00 827.00,1196.00 827.00,1196.00 Z
           M 859.00,1198.00
           C 859.00,1198.00 855.00,1200.00 855.00,1200.00
             855.00,1200.00 859.00,1198.00 859.00,1198.00 Z
           M 869.00,1200.00
           C 869.00,1200.00 862.00,1201.00 862.00,1201.00
             864.80,1198.45 865.71,1197.83 869.00,1200.00 Z
           M 960.00,1198.00
           C 960.00,1198.00 960.00,1199.00 960.00,1199.00
             960.00,1199.00 959.00,1198.00 959.00,1198.00
             959.00,1198.00 960.00,1198.00 960.00,1198.00 Z
           M 901.00,1199.00
           C 901.00,1199.00 896.00,1200.00 896.00,1200.00
             896.00,1200.00 901.00,1199.00 901.00,1199.00 Z
           M 994.00,1201.00
           C 994.00,1201.00 989.00,1202.00 989.00,1202.00
             989.00,1202.00 994.00,1201.00 994.00,1201.00 Z
           M 890.00,1203.00
           C 890.00,1203.00 891.00,1205.00 891.00,1205.00
             891.00,1205.00 892.00,1205.00 892.00,1205.00
             892.00,1205.00 875.00,1204.00 875.00,1204.00
             878.75,1205.24 890.03,1207.43 894.00,1207.83
             896.43,1208.08 900.32,1207.60 902.02,1209.57
             904.71,1212.68 901.67,1218.98 900.04,1222.00
             898.86,1224.19 897.50,1226.03 896.00,1228.00
             889.08,1225.57 890.17,1228.98 886.37,1234.98
             884.85,1237.39 882.54,1240.61 879.26,1238.92
             876.13,1237.31 875.22,1232.02 874.18,1229.00
             874.18,1229.00 868.58,1213.00 868.58,1213.00
             868.02,1210.99 866.72,1207.48 868.06,1205.60
             869.30,1203.87 872.13,1204.07 874.00,1204.00
             874.00,1204.00 871.00,1202.00 871.00,1202.00
             871.00,1202.00 890.00,1203.00 890.00,1203.00 Z
           M 912.00,1201.00
           C 912.00,1201.00 907.00,1202.00 907.00,1202.00
             907.00,1202.00 912.00,1201.00 912.00,1201.00 Z
           M 987.00,1201.00
           C 987.00,1201.00 987.00,1202.00 987.00,1202.00
             987.00,1202.00 986.00,1201.00 986.00,1201.00
             986.00,1201.00 987.00,1201.00 987.00,1201.00 Z
           M 918.00,1202.00
           C 918.00,1202.00 930.00,1204.00 930.00,1204.00
             925.44,1205.79 921.52,1204.31 917.00,1203.00
             917.00,1203.00 918.00,1202.00 918.00,1202.00 Z
           M 964.00,1210.00
           C 964.00,1210.00 948.00,1209.00 948.00,1209.00
             953.00,1207.02 959.02,1208.48 964.00,1210.00 Z
           M 1026.00,1208.00
           C 1026.00,1208.00 1026.00,1209.00 1026.00,1209.00
             1026.00,1209.00 1025.00,1208.00 1025.00,1208.00
             1025.00,1208.00 1026.00,1208.00 1026.00,1208.00 Z
           M 918.00,1211.00
           C 918.00,1211.00 918.00,1213.00 918.00,1213.00
             918.00,1213.00 908.00,1216.00 908.00,1216.00
             908.00,1216.00 908.00,1210.00 908.00,1210.00
             908.00,1210.00 918.00,1211.00 918.00,1211.00 Z
           M 1039.00,1210.00
           C 1039.00,1210.00 1042.00,1211.00 1042.00,1211.00
             1042.00,1211.00 1038.00,1211.00 1038.00,1211.00
             1038.00,1211.00 1039.00,1210.00 1039.00,1210.00 Z
           M 973.00,1211.00
           C 973.00,1211.00 966.00,1212.00 966.00,1212.00
             966.00,1212.00 973.00,1211.00 973.00,1211.00 Z
           M 1061.00,1211.00
           C 1061.00,1211.00 1061.00,1212.00 1061.00,1212.00
             1061.00,1212.00 1060.00,1211.00 1060.00,1211.00
             1060.00,1211.00 1061.00,1211.00 1061.00,1211.00 Z
           M 958.00,1215.00
           C 958.00,1215.00 958.00,1216.00 958.00,1216.00
             958.00,1216.00 957.00,1215.00 957.00,1215.00
             957.00,1215.00 958.00,1215.00 958.00,1215.00 Z
           M 1067.00,1216.00
           C 1067.00,1216.00 1067.00,1217.00 1067.00,1217.00
             1067.00,1217.00 1066.00,1216.00 1066.00,1216.00
             1066.00,1216.00 1067.00,1216.00 1067.00,1216.00 Z
           M 1007.00,1222.00
           C 1007.00,1222.00 1007.00,1223.00 1007.00,1223.00
             1007.00,1223.00 1006.00,1222.00 1006.00,1222.00
             1006.00,1222.00 1007.00,1222.00 1007.00,1222.00 Z
           M 1014.00,1225.00
           C 1014.00,1225.00 1008.00,1224.00 1008.00,1224.00
             1010.98,1223.05 1011.41,1223.33 1014.00,1225.00 Z
           M 1024.00,1227.00
           C 1024.00,1227.00 1016.00,1225.00 1016.00,1225.00
             1019.45,1223.14 1021.79,1223.79 1024.00,1227.00 Z
           M 833.00,1223.00
           C 833.48,1226.27 833.36,1227.83 836.00,1230.00
             836.00,1230.00 833.00,1223.00 833.00,1223.00 Z
           M 1092.00,1225.00
           C 1091.39,1228.53 1091.33,1228.66 1088.00,1230.00
             1088.00,1230.00 1085.00,1228.00 1085.00,1228.00
             1085.00,1228.00 1092.00,1225.00 1092.00,1225.00 Z
           M 1067.00,1226.00
           C 1067.00,1226.00 1067.00,1227.00 1067.00,1227.00
             1067.00,1227.00 1066.00,1226.00 1066.00,1226.00
             1066.00,1226.00 1067.00,1226.00 1067.00,1226.00 Z
           M 771.00,1320.00
           C 771.00,1320.00 766.00,1323.00 766.00,1323.00
             766.00,1323.00 760.00,1344.00 760.00,1344.00
             766.31,1339.57 774.06,1327.96 771.00,1320.00 Z" />
</svg>
